<svg xmlns="http://www.w3.org/2000/svg" width="200" height="40" viewBox="0 15 200 40">
  <defs>
    <style>
      .cls-1 {
        fill-rule: evenodd;
      }
    </style>
  </defs>
  <path id="suvpreme" class="cls-1" d="M24.481,31.928a3.783,3.783,0,0,0-1.566-3.078,9.126,9.126,0,0,0-4-1.471,41.535,41.535,0,0,0-6.237-.392,36.732,36.732,0,0,0-5.9.392,7.552,7.552,0,0,0-3.658,1.5A3.857,3.857,0,0,0,1.8,32.008a3.625,3.625,0,0,0,1.728,3.281,10.992,10.992,0,0,0,4.806,1.39l6.534,0.675a3.4,3.4,0,0,1,1.269.324,0.712,0.712,0,0,1,.351.648,0.836,0.836,0,0,1-.689.715,7.666,7.666,0,0,1-2.389.256,5.846,5.846,0,0,1-2.363-.337,1.44,1.44,0,0,1-.769-1.282H1.369a4.172,4.172,0,0,0,1.539,3.307,8.555,8.555,0,0,0,4,1.553,41.994,41.994,0,0,0,6.426.405,41.671,41.671,0,0,0,6.588-.419,7.776,7.776,0,0,0,3.834-1.553,4.035,4.035,0,0,0,1.323-3.24A3.733,3.733,0,0,0,23.536,34.4a9.428,9.428,0,0,0-4.374-1.309l-7.452-.7a3.631,3.631,0,0,1-1.269-.27,0.629,0.629,0,0,1-.351-0.594q0-.918,2.619-0.918a6.531,6.531,0,0,1,2.3.31,1.22,1.22,0,0,1,.864,1.012h8.613ZM47.944,42.3V27.662H39.952v6.345a3.039,3.039,0,0,1-.837,2.4,3.293,3.293,0,0,1-2.241.729q-2.484,0-2.484-2.592V27.662H26.4v9.1a5.366,5.366,0,0,0,1.809,4.482A7.851,7.851,0,0,0,33.2,42.674a11.044,11.044,0,0,0,3.915-.607,9.021,9.021,0,0,0,2.808-1.687h0.162V42.3h7.857Zm12.582-6.912-3.078-7.722H48.484L55.963,42.3h9.288L72.73,27.662H63.766l-3.078,7.722H60.526Zm20.9,5.4a7.465,7.465,0,0,0,2.606,1.62,10.163,10.163,0,0,0,3.5.54,9.91,9.91,0,0,0,6.615-2,7.23,7.23,0,0,0,2.349-5.832A7.219,7.219,0,0,0,94.127,29.3a9.878,9.878,0,0,0-6.6-2.012,10.486,10.486,0,0,0-3.55.54,7.246,7.246,0,0,0-2.686,1.728H81.127v-1.89H73.27V47.21h7.992V40.784h0.162Zm3.294-8.5q3.537,0,3.537,2.835t-3.537,2.835a4.052,4.052,0,0,1-2.876-.81,2.9,2.9,0,0,1,0-4.05,4.052,4.052,0,0,1,2.876-.81h0ZM97.813,42.3h7.992V38.111a3.354,3.354,0,0,1,1.323-3.078,6.725,6.725,0,0,1,3.618-.837,20.155,20.155,0,0,1,3.294.3v-7.1a11.542,11.542,0,0,0-1.3-.108,12.1,12.1,0,0,0-4.131.621,6.206,6.206,0,0,0-2.781,1.971H105.67V27.662H97.813V42.3Zm40.77-7.317a6.908,6.908,0,0,0-2.795-5.953q-2.794-2.038-8.869-2.038t-8.87,2.038a6.88,6.88,0,0,0-2.794,5.927,6.91,6.91,0,0,0,2.781,5.967q2.779,2.025,8.883,2.025,6.263,0,8.788-1.471a4.748,4.748,0,0,0,2.687-3.794h-8.1q-0.81,1.35-3.375,1.35a4.227,4.227,0,0,1-2.579-.635,2.523,2.523,0,0,1-.9-1.957H138.5a13.193,13.193,0,0,0,.081-1.458h0ZM126.919,30.9a4.687,4.687,0,0,1,2.376.486,2.188,2.188,0,0,1,1.026,1.485h-6.8a2.181,2.181,0,0,1,1.026-1.485,4.682,4.682,0,0,1,2.376-.486h0Zm12.987-3.24V42.3H147.9V35.384a2.255,2.255,0,0,1,2.538-2.565,1.851,1.851,0,0,1,2.052,2.133V42.3h7.992V35.384a2.255,2.255,0,0,1,2.538-2.565,1.851,1.851,0,0,1,2.052,2.133V42.3h7.992V33.143a5.339,5.339,0,0,0-1.782-4.428,7.461,7.461,0,0,0-4.806-1.431,10.893,10.893,0,0,0-3.713.607,6.774,6.774,0,0,0-2.848,1.931,4.013,4.013,0,0,0-2.2-2,10.11,10.11,0,0,0-3.523-.54,10.378,10.378,0,0,0-3.537.621,6.32,6.32,0,0,0-2.727,1.782h-0.162V27.662h-7.857Zm57.807,7.317a6.908,6.908,0,0,0-2.795-5.953q-2.794-2.038-8.869-2.038t-8.87,2.038a6.88,6.88,0,0,0-2.794,5.927,6.91,6.91,0,0,0,2.781,5.967q2.78,2.025,8.883,2.025,6.262,0,8.788-1.471a4.748,4.748,0,0,0,2.687-3.794h-8.1q-0.81,1.35-3.375,1.35a4.227,4.227,0,0,1-2.579-.635,2.523,2.523,0,0,1-.9-1.957h15.066a13.193,13.193,0,0,0,.081-1.458h0ZM186.049,30.9a4.687,4.687,0,0,1,2.376.486,2.188,2.188,0,0,1,1.026,1.485h-6.8a2.181,2.181,0,0,1,1.026-1.485,4.682,4.682,0,0,1,2.376-.486h0Z"/>
</svg>